<svg width="41" height="41" viewBox="0 0 41 41" fill="none" xmlns="http://www.w3.org/2000/svg">
<g clip-path="url(#clip0_159_93)">
<path d="M8.54168 22.2084H28.8025L22.6013 29.6568C22.4577 29.8295 22.3495 30.0288 22.283 30.2434C22.2164 30.4579 22.1928 30.6835 22.2134 30.9071C22.2551 31.3589 22.4745 31.7755 22.8233 32.0655C23.1722 32.3555 23.622 32.495 24.0737 32.4533C24.5254 32.4117 24.9421 32.1923 25.2321 31.8434L33.7738 21.5934C33.8312 21.5119 33.8826 21.4262 33.9275 21.3372C33.9275 21.2518 34.0129 21.2005 34.0471 21.1151C34.1245 20.9192 34.1651 20.7107 34.1667 20.5001C34.1651 20.2895 34.1245 20.081 34.0471 19.8851C34.0471 19.7997 33.9617 19.7484 33.9275 19.663C33.8826 19.5739 33.8312 19.4883 33.7738 19.4068L25.2321 9.15675C25.0715 8.96391 24.8703 8.80883 24.643 8.70253C24.4156 8.59624 24.1677 8.54134 23.9167 8.54175C23.5175 8.54097 23.1307 8.67999 22.8233 8.93467C22.6504 9.07808 22.5074 9.25421 22.4026 9.45297C22.2978 9.65173 22.2332 9.86922 22.2126 10.093C22.1919 10.3167 22.2156 10.5423 22.2823 10.7569C22.349 10.9715 22.4574 11.1708 22.6013 11.3434L28.8025 18.7918H8.54168C8.0886 18.7918 7.65408 18.9717 7.3337 19.2921C7.01333 19.6125 6.83334 20.047 6.83334 20.5001C6.83334 20.9532 7.01333 21.3877 7.3337 21.7081C7.65408 22.0284 8.0886 22.2084 8.54168 22.2084Z" fill="#231F20"/>
</g>
<defs>
<clipPath id="clip0_159_93">
<rect width="41" height="41" fill="white"/>
</clipPath>
</defs>
</svg>
