<svg width="40" height="40" viewBox="0 0 40 40" fill="none" xmlns="http://www.w3.org/2000/svg">
<g clip-path="url(#clip0_159_82)">
<path d="M21.6463 21.6275C21.5 21.6275 21.3525 21.6788 21.2338 21.7825L7.0875 34.185L7.9125 35.125L22.0588 22.7238C22.3188 22.4963 22.345 22.1012 22.1162 21.8412C21.9925 21.7 21.82 21.6275 21.6463 21.6275Z" fill="#2688EB"/>
<path d="M27.265 0C19.5875 0 15 6.0375 15 11.875C15 13.5575 15.4025 15.4112 15.9975 16.615L10.345 19.4412C10.1337 19.5475 10 19.7638 10 20V25H6.25C6.23625 25 6.1225 25.0075 6.10875 25.0075C5.27625 25.0637 5.0275 25.3287 5 26.25V31.25H1.25C1.08875 31.25 0.977501 31.2325 0.9025 31.2213C0.751251 31.1975 0.46875 31.1538 0.223751 31.3737C-0.0287476 31.5988 -0.0175018 31.8837 -0.00749969 32.135C-0.00500107 32.225 0 32.3438 0 32.5V38.1638C0 39.1763 0.82375 40 1.83625 40H6.68C7.1225 40 7.5525 39.8388 7.89125 39.545L24.375 25.095C25.1862 25.2575 26.4125 25.4688 27.2662 25.4688C34.2875 25.4688 40 19.7563 40 12.735C40 5.71375 34.2875 0 27.265 0ZM27.265 24.2188C26.6388 24.2188 25.5662 24.0688 24.3225 23.8088C24.1287 23.7663 23.93 23.8212 23.7825 23.95L7.06875 38.6025C6.96 38.6975 6.82125 38.75 6.68 38.75H1.83625C1.5125 38.75 1.25 38.4875 1.25 38.1638V32.5H5.625C5.97 32.5 6.25 32.22 6.25 31.875V26.25H10.625C10.97 26.25 11.25 25.97 11.25 25.625V20.3862L17.155 17.4338C17.3188 17.3525 17.4387 17.2013 17.4825 17.0238C17.5263 16.8462 17.49 16.6575 17.3825 16.5088C16.8325 15.75 16.25 13.8663 16.25 11.875C16.25 6.6525 20.37 1.25 27.265 1.25C33.5975 1.25 38.75 6.4025 38.75 12.735C38.75 19.0675 33.5975 24.2188 27.265 24.2188Z" fill="#2688EB"/>
<path d="M29.375 6.25C26.9625 6.25 25 8.2125 25 10.625C25 13.0375 26.9625 15 29.375 15C31.7875 15 33.75 13.0375 33.75 10.625C33.75 8.2125 31.7875 6.25 29.375 6.25ZM29.375 13.75C27.6525 13.75 26.25 12.3475 26.25 10.625C26.25 8.9025 27.6525 7.5 29.375 7.5C31.0975 7.5 32.5 8.9025 32.5 10.625C32.5 12.3475 31.0975 13.75 29.375 13.75Z" fill="#2688EB"/>
</g>
<defs>
<clipPath id="clip0_159_82">
<rect width="40" height="40" fill="white" transform="matrix(-1 0 0 -1 40 40)"/>
</clipPath>
</defs>
</svg>
