<svg width="45" height="45" viewBox="0 0 45 45" fill="none" xmlns="http://www.w3.org/2000/svg">
<path d="M14.0625 4.5C12.5156 4.5 11.25 5.76562 11.25 7.3125V37.6875C11.25 39.2344 12.5156 40.5 14.0625 40.5H30.9375C32.4844 40.5 33.75 39.2344 33.75 37.6875V28.125H32.625V33.75H12.375V10.125H32.625V12.375H33.75V7.3125C33.75 5.76562 32.4844 4.5 30.9375 4.5H14.0625ZM14.0625 5.625H30.9375C31.8757 5.625 32.625 6.37427 32.625 7.3125V9H12.375V7.3125C12.375 6.37427 13.1243 5.625 14.0625 5.625ZM20.25 6.75C20.0479 6.7478 19.8589 6.85327 19.7556 7.02905C19.6545 7.20483 19.6545 7.42017 19.7556 7.59595C19.8589 7.77173 20.0479 7.8772 20.25 7.875H24.75C24.9521 7.8772 25.1411 7.77173 25.2444 7.59595C25.3455 7.42017 25.3455 7.20483 25.2444 7.02905C25.1411 6.85327 24.9521 6.7478 24.75 6.75H20.25ZM17.9714 6.75C17.6616 6.75 17.4089 7.00269 17.4089 7.3125C17.4067 7.62231 17.6594 7.875 17.9692 7.875C18.1187 7.8772 18.2615 7.81787 18.3669 7.7124C18.4724 7.60693 18.5339 7.46191 18.5339 7.3125C18.5339 7.00269 18.2812 6.7522 17.9714 6.75ZM14.625 11.25C14.3152 11.25 14.0625 11.5027 14.0625 11.8125C14.0625 12.1223 14.3152 12.375 14.625 12.375C14.9348 12.375 15.1875 12.1223 15.1875 11.8125C15.1875 11.5027 14.9348 11.25 14.625 11.25ZM14.625 13.5C14.3152 13.5 14.0625 13.7527 14.0625 14.0625C14.0625 14.3723 14.3152 14.625 14.625 14.625C14.9348 14.625 15.1875 14.3723 15.1875 14.0625C15.1875 13.7527 14.9348 13.5 14.625 13.5ZM22.5 14.0625C21.575 14.0625 20.8125 14.825 20.8125 15.75V24.75C20.8125 25.675 21.575 26.4375 22.5 26.4375H24.1875V29.25L27.9382 26.4375H37.125C38.05 26.4375 38.8125 25.675 38.8125 24.75V15.75C38.8125 14.825 38.05 14.0625 37.125 14.0625H22.5ZM22.5 15.1875H37.125C37.4436 15.1875 37.6875 15.4314 37.6875 15.75V24.75C37.6875 25.0686 37.4436 25.3125 37.125 25.3125H27.5625L25.3125 27V25.3125H22.5C22.1814 25.3125 21.9375 25.0686 21.9375 24.75V15.75C21.9375 15.4314 22.1814 15.1875 22.5 15.1875ZM14.625 15.75C14.3152 15.75 14.0625 16.0027 14.0625 16.3125C14.0625 16.6223 14.3152 16.875 14.625 16.875C14.9348 16.875 15.1875 16.6223 15.1875 16.3125C15.1875 16.0027 14.9348 15.75 14.625 15.75ZM29.8125 16.875C29.5027 16.875 29.25 17.1277 29.25 17.4375C29.25 17.4705 29.2522 17.5012 29.2588 17.5342C28.5798 17.7693 28.125 18.4065 28.125 19.125V20.25C28.125 20.8718 27.6218 21.375 27 21.375V22.5H29.25C29.25 22.8098 29.5027 23.0625 29.8125 23.0625C30.1223 23.0625 30.375 22.8098 30.375 22.5H32.625V21.375C32.0032 21.375 31.5 20.8718 31.5 20.25V19.125C31.5 18.4065 31.0452 17.7693 30.3662 17.5342C30.3728 17.5012 30.375 17.4705 30.375 17.4375C30.375 17.1277 30.1223 16.875 29.8125 16.875ZM14.625 18C14.3152 18 14.0625 18.2527 14.0625 18.5625C14.0625 18.8723 14.3152 19.125 14.625 19.125C14.9348 19.125 15.1875 18.8723 15.1875 18.5625C15.1875 18.2527 14.9348 18 14.625 18ZM14.625 20.25C14.3152 20.25 14.0625 20.5027 14.0625 20.8125C14.0625 21.1223 14.3152 21.375 14.625 21.375C14.9348 21.375 15.1875 21.1223 15.1875 20.8125C15.1875 20.5027 14.9348 20.25 14.625 20.25ZM14.625 22.5C14.3152 22.5 14.0625 22.7527 14.0625 23.0625C14.0625 23.3723 14.3152 23.625 14.625 23.625C14.9348 23.625 15.1875 23.3723 15.1875 23.0625C15.1875 22.7527 14.9348 22.5 14.625 22.5ZM14.625 24.75C14.3152 24.75 14.0625 25.0027 14.0625 25.3125C14.0625 25.6223 14.3152 25.875 14.625 25.875C14.9348 25.875 15.1875 25.6223 15.1875 25.3125C15.1875 25.0027 14.9348 24.75 14.625 24.75ZM14.625 27C14.3152 27 14.0625 27.2527 14.0625 27.5625C14.0625 27.8723 14.3152 28.125 14.625 28.125C14.9348 28.125 15.1875 27.8723 15.1875 27.5625C15.1875 27.2527 14.9348 27 14.625 27ZM14.625 29.25C14.3152 29.25 14.0625 29.5027 14.0625 29.8125C14.0625 30.1223 14.3152 30.375 14.625 30.375C14.9348 30.375 15.1875 30.1223 15.1875 29.8125C15.1875 29.5027 14.9348 29.25 14.625 29.25ZM14.625 31.5C14.3152 31.5 14.0625 31.7527 14.0625 32.0625C14.0625 32.3723 14.3152 32.625 14.625 32.625C14.9348 32.625 15.1875 32.3723 15.1875 32.0625C15.1875 31.7527 14.9348 31.5 14.625 31.5ZM12.375 34.875H32.625V37.6875C32.625 38.6257 31.8757 39.375 30.9375 39.375H14.0625C13.1243 39.375 12.375 38.6257 12.375 37.6875V34.875ZM22.5 36C21.8782 36 21.375 36.5032 21.375 37.125C21.375 37.7468 21.8782 38.25 22.5 38.25C23.1218 38.25 23.625 37.7468 23.625 37.125C23.625 36.5032 23.1218 36 22.5 36Z" fill="#2688EB"/>
</svg>
