<svg width="36" height="36" viewBox="0 0 36 36" fill="none" xmlns="http://www.w3.org/2000/svg">
<g clip-path="url(#clip0_159_61)">
<path d="M0.0779686 27.8934C0.17979 27.5866 0.827614 27.1346 2.02099 26.5386C2.34428 26.3507 2.80494 26.0954 3.401 25.7715C3.9976 25.4476 4.53913 25.1491 5.02459 24.8763C5.51104 24.6036 5.96678 24.3394 6.3926 24.0841C6.46066 24.033 6.6737 23.8841 7.03164 23.6364C7.38995 23.3894 7.6921 23.2061 7.93971 23.0865C8.18679 22.9677 8.42983 22.9078 8.66849 22.9078C9.00933 22.9078 9.43506 23.1509 9.94623 23.6364C10.4574 24.1224 10.9263 24.6505 11.3522 25.222C11.7782 25.7932 12.23 26.3212 12.7068 26.8071C13.1843 27.2931 13.5766 27.5358 13.8831 27.5358C14.0369 27.5358 14.2287 27.4929 14.4586 27.4083C14.6884 27.3232 14.8632 27.2502 14.9832 27.1913C15.1021 27.1312 15.3062 27.0123 15.5962 26.8328C15.8867 26.6537 16.0483 26.5557 16.0823 26.5386C18.4174 25.2428 20.42 23.7599 22.0906 22.09C23.7607 20.4191 25.2439 18.4166 26.5393 16.0812C26.5563 16.0471 26.6545 15.8851 26.8334 15.5955C27.0125 15.3056 27.1318 15.1014 27.1915 14.9817C27.2511 14.8625 27.3236 14.6877 27.4086 14.4577C27.4937 14.2276 27.5364 14.036 27.5364 13.8824C27.5364 13.5757 27.2935 13.1835 26.8077 12.7062C26.3219 12.2291 25.7934 11.7773 25.2226 11.3514C24.6513 10.9256 24.1233 10.4567 23.6374 9.94554C23.1517 9.43411 22.9088 9.00819 22.9088 8.66736C22.9088 8.42888 22.9684 8.18574 23.0876 7.93867C23.2069 7.69105 23.3901 7.3889 23.6374 7.03078C23.8847 6.67284 24.0338 6.45997 24.0851 6.39147C24.3405 5.96564 24.6044 5.50973 24.8774 5.02391C25.1505 4.53817 25.4485 3.99674 25.7725 3.40023C26.0962 2.80398 26.3517 2.34359 26.5394 2.01977C27.1357 0.82684 27.5873 0.178837 27.8942 0.0769258C28.0136 0.0257912 28.1927 0 28.4311 0C28.8915 0 29.4923 0.0850751 30.2337 0.255762C30.9753 0.426181 31.559 0.604928 31.9851 0.79272C32.8374 1.15048 33.7407 2.19019 34.6954 3.91148C35.5647 5.5134 35.9993 7.09893 35.9993 8.66691C35.9993 9.12676 35.9694 9.57417 35.9098 10.0092C35.8501 10.4438 35.7436 10.9339 35.59 11.4795C35.4367 12.0249 35.313 12.43 35.2195 12.6938C35.1259 12.9578 34.9512 13.4308 34.6955 14.1128C34.4401 14.7946 34.2865 15.212 34.2353 15.3655C33.6388 17.036 32.9314 18.5273 32.1134 19.8399C30.7674 22.0215 28.9306 24.2762 26.604 26.603C24.2773 28.9296 22.0231 30.7663 19.8413 32.1128C18.5289 32.9308 17.037 33.6381 15.3668 34.235C15.2133 34.2859 14.7959 34.4391 14.1143 34.6954C13.4324 34.951 12.9593 35.1257 12.6953 35.2195C12.4312 35.3133 12.026 35.4371 11.4811 35.5907C10.935 35.7442 10.4453 35.8508 10.0107 35.9109C9.57584 35.9697 9.12834 36.0001 8.6684 36.0001C7.10051 36.0001 5.51489 35.5652 3.9127 34.696C2.19159 33.7418 1.15215 32.8383 0.794212 31.9854C0.605972 31.5596 0.427673 30.9758 0.257252 30.2342C0.0862961 29.4928 0.00139999 28.8922 0.00139999 28.4318C0.000862122 28.1924 0.0265656 28.0138 0.0779686 27.8934Z" fill="#FBAF6A"/>
</g>
<defs>
<clipPath id="clip0_159_61">
<rect width="36" height="36" fill="white" transform="matrix(-1 0 0 1 36 0)"/>
</clipPath>
</defs>
</svg>
