<svg width="45" height="45" viewBox="0 0 45 45" fill="none" xmlns="http://www.w3.org/2000/svg">
<g clip-path="url(#clip0_167_242)">
<path d="M44.7614 32.8498C44.707 32.7323 44.6562 32.6349 44.609 32.5569C43.8282 31.1507 42.3362 29.4248 40.1339 27.3785L40.0874 27.3317L40.0641 27.3087L40.0405 27.2851H40.0169C39.0174 26.3323 38.3844 25.6916 38.1193 25.3636C37.6343 24.7388 37.5257 24.1063 37.7908 23.4655C37.978 22.9813 38.6815 21.9588 39.8994 20.3966C40.5401 19.5687 41.0475 18.9051 41.4222 18.4052C44.1246 14.8124 45.2963 12.5166 44.9368 11.5169L44.7972 11.2832C44.7034 11.1426 44.4613 11.0139 44.0713 10.8965C43.6803 10.7794 43.1807 10.7601 42.5713 10.8381L35.8238 10.8847C35.7145 10.846 35.5584 10.8496 35.355 10.8965C35.1519 10.9435 35.0503 10.967 35.0503 10.967L34.9329 11.0257L34.8397 11.0962C34.7616 11.1428 34.6756 11.2248 34.5818 11.342C34.4885 11.4588 34.4105 11.5958 34.3481 11.752C33.6135 13.642 32.7783 15.3992 31.8408 17.0235C31.2629 17.9921 30.7321 18.8316 30.2473 19.5423C29.7633 20.2528 29.3571 20.7763 29.0294 21.1119C28.7011 21.4477 28.4049 21.7168 28.1388 21.9201C27.8732 22.1234 27.6704 22.2094 27.53 22.1779C27.3892 22.1465 27.2567 22.1153 27.1312 22.0841C26.9127 21.9435 26.7369 21.7522 26.6044 21.5101C26.4713 21.268 26.3817 20.9633 26.3348 20.5963C26.2882 20.2289 26.2606 19.913 26.2528 19.6474C26.2454 19.382 26.2488 19.0068 26.2646 18.5226C26.2809 18.0382 26.2882 17.7104 26.2882 17.5386C26.2882 16.9449 26.2998 16.3007 26.323 15.6056C26.3466 14.9105 26.3658 14.3598 26.3818 13.9541C26.3977 13.5479 26.4051 13.1182 26.4051 12.6653C26.4051 12.2123 26.3775 11.857 26.323 11.5992C26.2692 11.3417 26.1865 11.0917 26.0776 10.8494C25.9681 10.6073 25.8077 10.42 25.5973 10.2871C25.3865 10.1543 25.1244 10.0489 24.8125 9.97063C23.9845 9.78328 22.9303 9.68193 21.6492 9.66618C18.7441 9.63499 16.8774 9.82259 16.0495 10.2287C15.7215 10.4003 15.4247 10.6348 15.1593 10.9313C14.8781 11.2751 14.8388 11.4627 15.0419 11.4936C15.9792 11.634 16.6427 11.9699 17.0333 12.5009L17.174 12.7823C17.2835 12.9853 17.3928 13.3447 17.5022 13.8601C17.6114 14.3755 17.6819 14.9455 17.7129 15.57C17.7909 16.7105 17.7909 17.6867 17.7129 18.4988C17.6347 19.3112 17.5609 19.9437 17.4904 20.3967C17.4199 20.8497 17.3145 21.2167 17.174 21.4978C17.0333 21.7789 16.9396 21.9508 16.8927 22.0132C16.8458 22.0755 16.8068 22.1148 16.7758 22.1303C16.5727 22.2081 16.3616 22.2477 16.1431 22.2477C15.9242 22.2477 15.6588 22.1382 15.3465 21.9194C15.0342 21.7007 14.7102 21.4001 14.3743 21.0174C14.0384 20.6346 13.6596 20.0996 13.2377 19.4124C12.8161 18.7252 12.3787 17.913 11.9258 16.9759L11.551 16.2962C11.3167 15.859 10.9966 15.2223 10.5905 14.3869C10.1841 13.551 9.82493 12.7426 9.51268 11.9616C9.38786 11.6336 9.20035 11.3838 8.95047 11.212L8.8332 11.1415C8.75524 11.0791 8.63009 11.0129 8.45842 10.9423C8.28649 10.8718 8.1071 10.8213 7.91951 10.7902L1.49979 10.8368C0.843774 10.8368 0.398663 10.9854 0.164291 11.2822L0.0704923 11.4227C0.0236342 11.5009 0 11.6258 0 11.7977C0 11.9695 0.0468581 12.1804 0.140656 12.4301C1.07782 14.6327 2.09696 16.7569 3.19808 18.8031C4.29921 20.8493 5.25606 22.4975 6.06808 23.7463C6.88026 24.9961 7.70811 26.1756 8.55164 27.2842C9.39517 28.3933 9.95353 29.1041 10.2267 29.4163C10.5002 29.7291 10.7151 29.963 10.8712 30.1192L11.4571 30.6814C11.832 31.0564 12.3824 31.5054 13.1088 32.0286C13.8353 32.552 14.6396 33.0674 15.5221 33.5754C16.4048 34.0827 17.4316 34.4966 18.6032 34.8167C19.7747 35.1372 20.9149 35.2658 22.024 35.2037H24.7184C25.2649 35.1566 25.6789 34.9847 25.9603 34.6881L26.0535 34.5707C26.1162 34.4775 26.1749 34.3326 26.229 34.1377C26.2839 33.9425 26.3111 33.7274 26.3111 33.4935C26.2951 32.8219 26.3462 32.2167 26.4631 31.6779C26.5799 31.1392 26.713 30.7331 26.8618 30.4596C27.0106 30.1863 27.1785 29.9557 27.3654 29.7688C27.5526 29.5814 27.6861 29.4679 27.7644 29.4289C27.8422 29.3896 27.9043 29.3629 27.9511 29.3469C28.326 29.222 28.7672 29.343 29.2753 29.7104C29.783 30.0774 30.2592 30.5307 30.7047 31.0693C31.1499 31.6085 31.6848 32.2134 32.3094 32.8849C32.9345 33.5567 33.481 34.056 33.9495 34.3845L34.4179 34.6657C34.7307 34.8533 35.1368 35.0251 35.6368 35.1813C36.1358 35.3373 36.573 35.3764 36.9485 35.2984L42.9462 35.2048C43.5394 35.2048 44.001 35.1066 44.3285 34.9117C44.6566 34.7165 44.8515 34.5014 44.9143 34.2674C44.977 34.0332 44.9804 33.7675 44.9262 33.4704C44.8707 33.1741 44.8159 32.9669 44.7614 32.8498Z" fill="#2688EB"/>
</g>
<defs>
<clipPath id="clip0_167_242">
<rect width="45" height="45" fill="white"/>
</clipPath>
</defs>
</svg>
