<svg width="28" height="28" viewBox="0 0 28 28" fill="none" xmlns="http://www.w3.org/2000/svg">
<g clip-path="url(#clip0_74_5)">
<path d="M7.43333 24.0667C7.13865 24.0667 6.85603 23.9496 6.64766 23.7412C6.43929 23.5329 6.32222 23.2502 6.32222 22.9556L6.15556 6.66667C6.14218 6.33594 6.19431 6.00583 6.30897 5.69532C6.42363 5.38482 6.59854 5.10004 6.82365 4.85738C7.04876 4.61471 7.31963 4.41895 7.62066 4.28134C7.9217 4.14373 8.24698 4.067 8.57778 4.05556L19.2333 4C19.5646 4.00579 19.8914 4.07677 20.1952 4.2089C20.499 4.34103 20.7738 4.53171 21.0039 4.77006C21.234 5.0084 21.4149 5.28975 21.5362 5.59801C21.6576 5.90628 21.717 6.23543 21.7111 6.56667L21.8667 22.8556C21.8686 23.0503 21.8193 23.242 21.7237 23.4117C21.6282 23.5814 21.4897 23.7229 21.3222 23.8222C21.1533 23.9197 20.9617 23.9711 20.7667 23.9711C20.5716 23.9711 20.38 23.9197 20.2111 23.8222L13.8778 20.3111L8 23.9C7.82595 23.9972 7.63231 24.0542 7.43333 24.0667ZM13.8333 17.9C14.0264 17.9003 14.2167 17.946 14.3889 18.0333L19.6222 20.9333L19.4889 6.54444C19.4889 6.32222 19.3444 6.16667 19.2556 6.17778L8.58889 6.27778C8.5 6.27778 8.37778 6.42222 8.37778 6.64444L8.51111 20.9778L13.2667 18.0556C13.4394 17.9567 13.6343 17.9031 13.8333 17.9Z" fill="#626D7A"/>
</g>
<defs>
<clipPath id="clip0_74_5">
<rect width="26.6667" height="26.6667" fill="white" transform="translate(0.666656 0.666672)"/>
</clipPath>
</defs>
</svg>
