<svg width="23" height="22" viewBox="0 0 23 22" fill="none" xmlns="http://www.w3.org/2000/svg">
<path d="M21.3699 2.37507C20.2832 1.26773 18.7817 0.714294 16.8648 0.714294C16.3343 0.714294 15.7929 0.810271 15.2412 1.00213C14.6892 1.19413 14.1757 1.45316 13.7012 1.77904C13.2261 2.10483 12.8178 2.41077 12.4753 2.6964C12.1332 2.98212 11.808 3.28577 11.5 3.6071C11.1919 3.28577 10.8667 2.98212 10.5246 2.6964C10.1822 2.41077 9.77374 2.10501 9.29875 1.77904C8.82384 1.45302 8.31042 1.19418 7.75855 1.00213C7.20673 0.810318 6.66543 0.714294 6.13497 0.714294C4.21824 0.714294 2.71666 1.26787 1.63001 2.37507C0.543368 3.48218 0 5.0178 0 6.98208C0 7.58031 0.100699 8.1966 0.301691 8.83021C0.502684 9.46414 0.731728 10.0044 0.988374 10.4507C1.24498 10.897 1.53597 11.3323 1.86112 11.7564C2.18628 12.1805 2.42391 12.4728 2.57348 12.6335C2.72318 12.7942 2.84087 12.9104 2.92642 12.9819L10.9352 21.0444C11.0893 21.2052 11.2775 21.2857 11.5 21.2857C11.7224 21.2857 11.9108 21.2052 12.0647 21.0444L20.0608 13.0084C22.0203 10.9641 23 8.95517 23 6.98189C23 5.01747 22.4567 3.48199 21.3699 2.37507ZM18.9441 11.7497L11.5 19.2362L4.04314 11.7362C2.44302 10.0669 1.64309 8.48191 1.64309 6.98189C1.64309 6.25878 1.73507 5.6203 1.91894 5.06686C2.10294 4.51334 2.33823 4.07347 2.62486 3.74759C2.91154 3.42162 3.26016 3.1562 3.67087 2.95069C4.0818 2.74537 4.48392 2.60694 4.87745 2.53555C5.27098 2.46424 5.69019 2.42855 6.13519 2.42855C6.58007 2.42855 7.05933 2.54225 7.57271 2.77C8.086 2.99765 8.55875 3.28337 8.99081 3.62708C9.42296 3.97102 9.79302 4.29239 10.1012 4.59139C10.4092 4.89067 10.6658 5.16505 10.8712 5.41507C11.0251 5.61158 11.2349 5.7098 11.5 5.7098C11.7653 5.7098 11.9749 5.61158 12.129 5.41507C12.3343 5.16505 12.5911 4.89053 12.8991 4.59139C13.2071 4.29239 13.5772 3.97116 14.0092 3.62708C14.4413 3.28337 14.9141 2.99765 15.4276 2.77C15.9409 2.5423 16.4202 2.42855 16.8652 2.42855C17.3101 2.42855 17.7291 2.46424 18.1229 2.53555C18.5165 2.6069 18.9187 2.74537 19.3294 2.95069C19.7402 3.15616 20.0888 3.42176 20.3754 3.74759C20.662 4.07347 20.8974 4.51334 21.0814 5.06686C21.2651 5.6203 21.3571 6.25878 21.3571 6.98189C21.357 8.48191 20.5528 10.0713 18.9441 11.7497Z" fill="#99A2AD"/>
</svg>
