<svg width="22" height="22" viewBox="0 0 22 22" fill="none" xmlns="http://www.w3.org/2000/svg">
<path d="M15.5421 11.4583C15.7952 11.4583 16.0004 11.2531 16.0004 11C16.0004 10.7469 15.7952 10.5417 15.5421 10.5417C15.2889 10.5417 15.0837 10.7469 15.0837 11C15.0837 11.2531 15.2889 11.4583 15.5421 11.4583Z" fill="#447BBA"/>
<path d="M14.6254 10.505C14.8786 10.505 15.0838 10.2998 15.0838 10.0467C15.0838 9.79352 14.8786 9.58832 14.6254 9.58832C14.3723 9.58832 14.1671 9.79352 14.1671 10.0467C14.1671 10.2998 14.3723 10.505 14.6254 10.505Z" fill="#447BBA"/>
<path d="M15.5421 9.58833C15.7952 9.58833 16.0004 9.38313 16.0004 9.12999C16.0004 8.87686 15.7952 8.67166 15.5421 8.67166C15.2889 8.67166 15.0837 8.87686 15.0837 9.12999C15.0837 9.38313 15.2889 9.58833 15.5421 9.58833Z" fill="#447BBA"/>
<path d="M16.5 10.505C16.7532 10.505 16.9584 10.2998 16.9584 10.0467C16.9584 9.79352 16.7532 9.58832 16.5 9.58832C16.2469 9.58832 16.0417 9.79352 16.0417 10.0467C16.0417 10.2998 16.2469 10.505 16.5 10.505Z" fill="#447BBA"/>
<path d="M13.893 5.6925H8.107C5.1535 5.6925 2.75 8.096 2.75 11.0495V14.0158C2.75 15.2799 3.7785 16.3075 5.04167 16.3075C6.23883 16.3075 7.34525 15.7493 8.00158 14.8133C8.68633 13.838 9.8065 13.255 11 13.255C12.1935 13.255 13.3137 13.838 13.9984 14.8133C14.6547 15.7493 15.7612 16.3075 16.9583 16.3075C18.2215 16.3075 19.25 15.2799 19.25 14.0158V11.0495C19.25 8.096 16.8465 5.6925 13.893 5.6925ZM18.3333 14.0158C18.3333 14.7739 17.7164 15.3908 16.9583 15.3908C16.06 15.3908 15.2332 14.9783 14.7483 14.2872C13.893 13.0671 12.4914 12.3383 11 12.3383C9.50858 12.3383 8.107 13.0671 7.25175 14.2872C6.76683 14.9783 5.94 15.3908 5.04167 15.3908C4.28358 15.3908 3.66667 14.7739 3.66667 14.0158V11.0495C3.66667 8.60109 5.65858 6.60917 8.107 6.60917H13.8939C16.3414 6.60917 18.3333 8.60109 18.3333 11.0495V14.0158Z" fill="#447BBA"/>
<path d="M7.81002 9.60666H7.33336V9.12999C7.33336 8.87699 7.12802 8.67166 6.87502 8.67166C6.62202 8.67166 6.41669 8.87699 6.41669 9.12999V9.60666H5.94002C5.68702 9.60666 5.48169 9.81199 5.48169 10.065C5.48169 10.318 5.68702 10.5233 5.94002 10.5233H6.41669V11C6.41669 11.253 6.62202 11.4583 6.87502 11.4583C7.12802 11.4583 7.33336 11.253 7.33336 11V10.5233H7.81002C8.06302 10.5233 8.26836 10.318 8.26836 10.065C8.26836 9.81199 8.06302 9.60666 7.81002 9.60666Z" fill="#447BBA"/>
</svg>
