<svg width="21" height="23" viewBox="0 0 21 23" fill="none" xmlns="http://www.w3.org/2000/svg">
<path d="M13.75 20.875H8.25V12.125C8.25 11.7798 8.49624 11.5 8.8 11.5H13.2C13.5038 11.5 13.75 11.7798 13.75 12.125V20.875Z" stroke="#447BBA" stroke-width="1.5" stroke-linecap="round" stroke-linejoin="round"/>
<path d="M18.7 20.875H13.75V17.8542C13.75 17.5089 13.9962 17.2292 14.3 17.2292H18.7C19.0038 17.2292 19.25 17.5089 19.25 17.8542V20.25C19.25 20.5952 19.0038 20.875 18.7 20.875Z" stroke="#447BBA" stroke-width="1.5" stroke-linecap="round" stroke-linejoin="round"/>
<path d="M8.25 20.875V15.7708C8.25 15.4256 8.00376 15.1458 7.7 15.1458H3.3C2.99624 15.1458 2.75 15.4256 2.75 15.7708V20.25C2.75 20.5952 2.99624 20.875 3.3 20.875H8.25Z" stroke="#447BBA" stroke-width="1.5" stroke-linecap="round" stroke-linejoin="round"/>
<path d="M9.90515 4.3263L10.7385 2.31834C10.8455 2.06055 11.1546 2.06055 11.2615 2.31834L12.0949 4.3263L13.9586 4.65028C14.1977 4.69186 14.293 5.04143 14.1199 5.24197L12.7716 6.80386L13.0897 9.01041C13.1306 9.29377 12.8806 9.5099 12.6666 9.37603L11 8.33366L9.33343 9.37603C9.11949 9.5099 8.86939 9.29377 8.91026 9.01041L9.22847 6.80386L7.88015 5.24197C7.70704 5.04143 7.80235 4.69186 8.04146 4.65028L9.90515 4.3263Z" stroke="#447BBA" stroke-width="1.5" stroke-linecap="round" stroke-linejoin="round"/>
</svg>
