<svg width="20" height="20" viewBox="0 0 20 20" fill="none" xmlns="http://www.w3.org/2000/svg">
<g clip-path="url(#clip0_41_42)">
<path d="M3.80667 0.12666C3.37333 0.279994 3.16667 0.42666 2.88667 0.793327C2.59333 1.17333 2.53333 1.43999 2.53333 2.33999V3.11999L1.95333 3.14666C1.07333 3.19333 0.553332 3.49999 0.219999 4.18666L0.0333323 4.56666L0.0133323 11.0267C-9.89996e-07 15.2667 0.019999 17.6133 0.0666657 17.86C0.213332 18.66 0.746666 19.36 1.46667 19.72L1.83333 19.9H18.1L18.48 19.72C18.9867 19.4867 19.4333 19.06 19.6867 18.5667L19.9 18.1667L19.92 9.81333L19.9333 1.45999L19.7933 1.13333C19.6333 0.76666 19.2067 0.333327 18.82 0.153327C18.58 0.0399935 18.1267 0.0333268 11.3667 0.0199935C4.5 0.00666016 4.15333 0.00666016 3.80667 0.12666ZM18.54 1.45999L18.7333 1.65333V9.66666C18.7333 16.74 18.72 17.7 18.6333 17.92C18.4933 18.2467 18.2867 18.46 17.9667 18.6067C17.7133 18.7267 17.3467 18.7333 10 18.7333C2.64667 18.7333 2.28667 18.7267 2.03333 18.6067C1.72 18.46 1.44 18.18 1.34 17.9133C1.28667 17.7867 1.26667 15.66 1.26667 11.24V4.75333L1.42667 4.57999C1.6 4.39333 1.90667 4.30666 2.27333 4.34666L2.5 4.36666L2.53333 10.7467L2.56667 17.1267L2.72 17.28C2.94 17.5067 3.36667 17.4867 3.57333 17.2467L3.73333 17.06V9.42666C3.73333 1.25333 3.72 1.52666 4.04667 1.33999C4.12667 1.29333 6.56667 1.27333 11.2533 1.26666H18.3467L18.54 1.45999Z" fill="#447BBA"/>
<path d="M5.22001 2.69333L5.03335 2.85333L5.01335 5.25999L4.99335 7.65999L5.19335 7.87999L5.38668 8.09999L7.61335 8.11999C8.83335 8.13333 9.93335 8.11999 10.06 8.09999C10.18 8.07333 10.3533 7.98666 10.44 7.89999L10.6 7.73999V5.36666C10.6 2.93999 10.5867 2.80666 10.34 2.61999C10.26 2.55999 9.61335 2.53999 7.82001 2.53333H5.40668L5.22001 2.69333ZM9.38668 5.31333L9.40001 6.86666H6.26668V3.73333L7.82001 3.74666L9.36668 3.76666L9.38668 5.31333ZM12.0133 3.83999C11.8533 3.95333 11.82 4.12666 11.9467 4.25333C12.06 4.36666 17.2733 4.36666 17.3867 4.25333C17.5133 4.12666 17.48 3.95333 17.32 3.83999C17.1933 3.74666 16.8267 3.73333 14.6667 3.73333C12.5067 3.73333 12.14 3.74666 12.0133 3.83999ZM12.0133 5.70666C11.8267 5.83333 11.8267 6.03333 12.0133 6.15999C12.24 6.31999 17.0933 6.31999 17.32 6.15999C17.4 6.10666 17.4667 5.99999 17.4667 5.93333C17.4667 5.86666 17.4 5.75999 17.32 5.70666C17.1933 5.61333 16.8267 5.59999 14.6667 5.59999C12.5067 5.59999 12.14 5.61333 12.0133 5.70666ZM12.06 7.55999C11.8467 7.66666 11.82 7.89333 12.0133 8.02666C12.1467 8.11999 12.48 8.13333 14.6667 8.13333C16.8533 8.13333 17.1867 8.11999 17.32 8.02666C17.5133 7.89333 17.4867 7.66666 17.2667 7.55333C17.0333 7.43999 12.2933 7.43999 12.06 7.55999ZM5.08001 9.47999C4.95335 9.60666 4.98668 9.77999 5.14668 9.89333C5.28001 9.98666 5.96668 9.99999 11.2333 9.99999C16.5 9.99999 17.1867 9.98666 17.32 9.89333C17.48 9.77999 17.5133 9.60666 17.3867 9.47999C17.2733 9.36666 5.19335 9.36666 5.08001 9.47999ZM5.05335 11.44C4.98001 11.5933 4.98668 11.6333 5.12668 11.74C5.27335 11.86 5.50668 11.8667 11.2267 11.8667C16.5 11.8667 17.1867 11.8533 17.32 11.76C17.48 11.6467 17.5133 11.4733 17.3867 11.3467C17.3267 11.2867 15.8667 11.2667 11.22 11.2667H5.13335L5.05335 11.44ZM5.05335 13.3C4.99335 13.44 5.00001 13.4867 5.10001 13.6C5.22001 13.7267 5.30668 13.7333 7.80668 13.7333C10.0667 13.7333 10.4067 13.72 10.4933 13.6267C10.62 13.5067 10.6333 13.3267 10.52 13.2133C10.46 13.1533 9.76001 13.1333 7.78668 13.1333H5.13335L5.05335 13.3ZM11.9467 13.2133C11.8333 13.3267 11.8467 13.5067 11.9733 13.6267C12.06 13.72 12.4 13.7333 14.6667 13.7333C16.9333 13.7333 17.2733 13.72 17.36 13.6267C17.4867 13.5067 17.5 13.3267 17.3867 13.2133C17.2733 13.1 12.06 13.1 11.9467 13.2133ZM5.05335 15.1667C4.99335 15.3067 5.00001 15.3533 5.10001 15.4667C5.22001 15.5933 5.30668 15.6 7.80668 15.6C10.0667 15.6 10.4067 15.5867 10.4933 15.4933C10.62 15.3733 10.6333 15.1933 10.52 15.08C10.46 15.02 9.76001 15 7.78668 15H5.13335L5.05335 15.1667ZM11.9467 15.08C11.8333 15.1933 11.8467 15.3733 11.9733 15.4933C12.06 15.5867 12.4 15.6 14.6667 15.6C16.9333 15.6 17.2733 15.5867 17.36 15.4933C17.4867 15.3733 17.5 15.1933 17.3867 15.08C17.2733 14.9667 12.06 14.9667 11.9467 15.08ZM5.06668 16.9933C4.97335 17.1733 4.98001 17.24 5.10668 17.36C5.19335 17.4533 5.53335 17.4667 7.77335 17.4667C9.42001 17.4667 10.3867 17.44 10.4733 17.4C10.6133 17.32 10.64 17.0667 10.52 16.9467C10.46 16.8867 9.76001 16.8667 7.78668 16.8667C5.23335 16.8667 5.13335 16.8733 5.06668 16.9933ZM11.9467 16.9467C11.8333 17.06 11.8467 17.24 11.9733 17.36C12.06 17.4533 12.4 17.4667 14.6667 17.4667C16.9333 17.4667 17.2733 17.4533 17.36 17.36C17.4867 17.24 17.5 17.06 17.3867 16.9467C17.2733 16.8333 12.06 16.8333 11.9467 16.9467Z" fill="#447BBA"/>
</g>
<defs>
<clipPath id="clip0_41_42">
<rect width="20" height="20" fill="white"/>
</clipPath>
</defs>
</svg>
