<svg width="40" height="40" viewBox="0 0 40 40" fill="none" xmlns="http://www.w3.org/2000/svg">
<path opacity="0.2" d="M20 38.75C29.665 38.75 37.5 30.915 37.5 21.25C37.5 11.585 29.665 3.75 20 3.75C10.335 3.75 2.5 11.585 2.5 21.25C2.5 30.915 10.335 38.75 20 38.75Z" fill="#00100F"/>
<path d="M20 37.5C29.665 37.5 37.5 29.665 37.5 20C37.5 10.335 29.665 2.5 20 2.5C10.335 2.5 2.5 10.335 2.5 20C2.5 29.665 10.335 37.5 20 37.5Z" fill="#447BBA"/>
<g opacity="0.2">
<path d="M20 8.75C17.238 8.75 15 10.989 15 13.75C15 16.511 17.238 18.75 20 18.75C22.762 18.75 25 16.511 25 13.75C25 10.989 22.762 8.75 20 8.75Z" fill="black"/>
<path d="M20 21.25C11.2509 21.2553 11.25 26.7885 11.25 26.7885V29.0385C11.25 29.0385 12.8654 32.5 20 32.5C27.1346 32.5 28.75 29.0385 28.75 29.0385V26.7885C28.75 26.7885 28.75 21.2465 20.0017 21.25H20Z" fill="black"/>
</g>
<path d="M20 7.5C17.238 7.5 15 9.739 15 12.5C15 15.261 17.238 17.5 20 17.5C22.762 17.5 25 15.261 25 12.5C25 9.739 22.762 7.5 20 7.5Z" fill="white"/>
<path d="M20 20C11.2509 20.0053 11.25 25.5385 11.25 25.5385V27.7885C11.25 27.7885 12.8654 31.25 20 31.25C27.1346 31.25 28.75 27.7885 28.75 27.7885V25.5385C28.75 25.5385 28.75 19.9965 20.0017 20H20Z" fill="white"/>
<path opacity="0.2" d="M20 2.5C15.3587 2.5 10.9075 4.34374 7.62563 7.62563C4.34374 10.9075 2.5 15.3587 2.5 20C2.50384 20.2443 2.51279 20.4885 2.52686 20.7324C2.66137 16.1861 4.56067 11.8707 7.82231 8.70066C11.0839 5.53062 15.4517 3.75499 20 3.75C24.5125 3.75297 28.8494 5.49892 32.1053 8.62332C35.3612 11.7477 37.2843 16.009 37.4731 20.5176C37.4846 20.3452 37.4936 20.1726 37.5 20C37.5 15.3587 35.6563 10.9075 32.3744 7.62563C29.0925 4.34374 24.6413 2.5 20 2.5Z" fill="white"/>
</svg>
