<svg width="25" height="25" viewBox="0 0 25 25" fill="none" xmlns="http://www.w3.org/2000/svg">
<g clip-path="url(#clip0_39_18)">
<path d="M7.95083 25C2.82873 22.1132 1.48019 19.3808 2.25119 15.6489C2.82037 12.8933 4.68415 10.6513 4.86285 7.90094C5.659 9.34977 5.99167 10.3945 6.08062 11.9085C8.61277 8.80615 10.2861 4.51138 10.3851 0C10.3851 0 16.9805 3.87521 17.4132 9.72875C17.981 8.52223 18.2668 6.606 17.699 5.36408C19.4023 6.60606 29.3718 17.6315 16.3487 25C18.7971 20.2325 16.9803 13.7998 12.7291 10.8288C13.013 12.1063 12.5153 16.8709 10.6345 18.9645C11.1556 15.4663 10.1386 13.9871 10.1386 13.9871C10.1386 13.9871 9.7896 15.9465 8.43535 17.9259C7.19869 19.7335 6.34181 21.6519 7.95083 25Z" fill="#F05C44"/>
</g>
<defs>
<clipPath id="clip0_39_18">
<rect width="25" height="25" fill="white"/>
</clipPath>
</defs>
</svg>
