<svg width="30" height="30" viewBox="0 0 30 30" fill="none" xmlns="http://www.w3.org/2000/svg">
<g clip-path="url(#clip0_43_149)">
<path fill-rule="evenodd" clip-rule="evenodd" d="M18.7219 20.6916C17.1342 21.8667 22.0711 16.8183 20.6662 18.7373C20.7014 18.7345 20.6362 18.8409 20.4178 19.1077C20.4178 19.1077 24.1697 22.8342 26.0114 24.7308C26.6508 25.4222 25.4972 26.8022 24.7134 26.0817C23.0456 24.4636 19.0992 20.4422 19.0931 20.4356L18.7219 20.6916Z" fill="#8A94A0"/>
<path d="M13.2089 22.5759C15.6229 22.5525 18.0126 21.5526 19.7311 19.8544C21.772 17.8373 22.8229 14.8533 22.4564 12.0042C21.8283 7.12218 17.8148 3.80905 13.1489 3.80905C9.60372 3.80905 6.15841 6.02671 4.64716 9.24233C3.49029 11.7042 3.48794 14.6766 4.64716 17.1426C6.14763 20.3358 9.53669 22.5417 13.0884 22.5759C13.1287 22.5759 13.169 22.5759 13.2089 22.5759ZM13.0983 21.0117C9.4931 20.977 6.12935 18.1889 5.46044 14.6142C4.98888 12.0942 5.87904 9.36702 7.73341 7.57733C9.8981 5.48718 13.3008 4.78733 16.1301 5.97186C18.6614 7.03171 20.5561 9.49265 20.9053 12.2039C21.2043 14.528 20.3704 16.9636 18.7317 18.6412C17.294 20.1131 15.2779 20.9916 13.199 21.0117C13.1653 21.0117 13.132 21.0117 13.0983 21.0117Z" fill="#8A94A0"/>
</g>
<defs>
<clipPath id="clip0_43_149">
<rect width="30" height="30" fill="white"/>
</clipPath>
</defs>
</svg>
