<svg width="36" height="36" viewBox="0 0 36 36" fill="none" xmlns="http://www.w3.org/2000/svg">
<g clip-path="url(#clip0_159_21)">
<path d="M18.0718 24.8934C12.5577 24.8934 8.07132 20.4073 8.07132 14.8929V10.0008C8.07167 4.48641 12.5578 0 18.0718 0C23.5865 0 28.0729 4.48641 28.0729 10.0008V14.8926C28.0729 20.407 23.5865 24.8934 18.0718 24.8934ZM18.0718 1.58485C13.4314 1.58485 9.65622 5.36027 9.65622 10.0008V14.8926C9.65622 19.5331 13.4314 23.3082 18.0718 23.3082C22.7126 23.3082 26.488 19.5328 26.488 14.8926V10.0008C26.488 5.36033 22.7126 1.58485 18.0718 1.58485Z" fill="#2688EB"/>
<path d="M31.4524 35.9999H4.5469C2.20606 35.9999 0.301727 34.0953 0.301727 31.7541V28.0266C0.301727 26.6389 0.999703 24.7814 4.32538 23.8124L8.35153 22.6989C8.77373 22.5822 9.20988 22.8295 9.32654 23.2515C9.4432 23.6734 9.1956 24.1098 8.77402 24.2264L4.75829 25.3371C1.88657 26.1739 1.88657 27.5685 1.88657 28.0266V31.7541C1.88657 33.2214 3.07998 34.4152 4.5469 34.4152H31.4523C32.9193 34.4152 34.113 33.2214 34.113 31.7541V28.0266C34.113 26.7901 33.144 25.8841 31.2334 25.3349L27.404 24.2651C26.9824 24.1472 26.7365 23.71 26.8541 23.2885C26.9719 22.8669 27.4088 22.6203 27.8306 22.7386L31.666 23.8102C34.9996 24.7686 35.6982 26.6321 35.6982 28.0265V31.754C35.6979 34.0953 33.7936 35.9999 31.4524 35.9999Z" fill="#2688EB"/>
</g>
<defs>
<clipPath id="clip0_159_21">
<rect width="36" height="36" fill="white"/>
</clipPath>
</defs>
</svg>
