<svg width="36" height="36" viewBox="0 0 36 36" fill="none" xmlns="http://www.w3.org/2000/svg">
<path d="M29.6181 6C31.482 6 32.9931 7.51104 32.9931 9.375V19.2077C32.3265 18.5693 31.5694 18.0246 30.7431 17.5947V9.375C30.7431 8.75368 30.2394 8.25 29.6181 8.25H6.375C5.75368 8.25 5.25 8.75368 5.25 9.375V26.6319C5.25 27.2532 5.75368 27.7569 6.375 27.7569L10.4985 27.756L10.5 23.625C10.5 22.2477 11.5607 21.1182 12.9097 21.0087L13.125 21H18.0327C17.5879 21.6948 17.2287 22.4498 16.9703 23.25H13.125C12.9475 23.25 12.7988 23.3733 12.7599 23.5391L12.75 23.625L12.7485 27.756H16.6157C16.7373 28.5413 16.9529 29.2955 17.2502 30.0069H6.375C4.51104 30.0069 3 28.4958 3 26.6319V9.375C3 7.51104 4.51104 6 6.375 6H29.6181Z" fill="#2688EB"/>
<path d="M18 10.5007C20.4854 10.5007 22.5 12.5155 22.5 15.0008C22.5 17.486 20.4854 19.5008 18 19.5008C15.5146 19.5008 13.5 17.486 13.5 15.0008C13.5 12.5155 15.5146 10.5007 18 10.5007ZM18 12.7507C16.7574 12.7507 15.75 13.7581 15.75 15.0008C15.75 16.2434 16.7574 17.2508 18 17.2508C19.2426 17.2508 20.25 16.2434 20.25 15.0008C20.25 13.7581 19.2426 12.7507 18 12.7507Z" fill="#2688EB"/>
<path d="M34.5 26.25C34.5 30.8064 30.8064 34.5 26.25 34.5C21.6936 34.5 18 30.8064 18 26.25C18 21.6936 21.6936 18 26.25 18C30.8064 18 34.5 21.6936 34.5 26.25ZM27.0831 21.6309C26.8209 20.7897 25.6791 20.7897 25.4169 21.6309L24.5814 24.3116H21.8777C21.0291 24.3116 20.6763 25.4435 21.3627 25.9634L23.5501 27.6201L22.7146 30.3006C22.4524 31.1418 23.376 31.8414 24.0626 31.3215L26.25 29.6649L28.4374 31.3215C29.124 31.8414 30.0475 31.1418 29.7853 30.3006L28.9499 27.6201L31.1373 25.9634C31.8237 25.4435 31.4709 24.3116 30.6223 24.3116H27.9186L27.0831 21.6309Z" fill="#2688EB"/>
</svg>
