<svg width="40" height="36" viewBox="0 0 40 36" fill="none" xmlns="http://www.w3.org/2000/svg">
<g clip-path="url(#clip0_158_366)">
<path d="M20.2297 8.00213H26.5447C26.6894 8.00213 26.8282 8.05963 26.9305 8.16198C27.0329 8.26433 27.0904 8.40314 27.0904 8.54788C27.0904 8.69262 27.0329 8.83143 26.9305 8.93378C26.8282 9.03613 26.6894 9.09363 26.5447 9.09363H20.2297C20.0849 9.09363 19.9461 9.03613 19.8438 8.93378C19.7414 8.83143 19.6839 8.69262 19.6839 8.54788C19.6839 8.40314 19.7414 8.26433 19.8438 8.16198C19.9461 8.05963 20.0849 8.00213 20.2297 8.00213ZM12.7224 9.09202H17.3154C17.4601 9.09202 17.5989 9.03453 17.7013 8.93218C17.8036 8.82983 17.8611 8.69102 17.8611 8.54628C17.8611 8.40154 17.8036 8.26273 17.7013 8.16038C17.5989 8.05803 17.4601 8.00053 17.3154 8.00053H12.7224C12.5776 8.00053 12.4388 8.05803 12.3365 8.16038C12.2342 8.26273 12.1767 8.40154 12.1767 8.54628C12.1767 8.69102 12.2342 8.82983 12.3365 8.93218C12.4388 9.03453 12.5776 9.09202 12.7224 9.09202ZM12.7224 16.3644H18.5397C18.6791 16.3568 18.8103 16.2961 18.9063 16.1947C19.0023 16.0934 19.0559 15.959 19.0559 15.8194C19.0559 15.6798 19.0023 15.5455 18.9063 15.4441C18.8103 15.3427 18.6791 15.282 18.5397 15.2745H12.7224C12.583 15.282 12.4518 15.3427 12.3557 15.4441C12.2597 15.5455 12.2062 15.6798 12.2062 15.8194C12.2062 15.959 12.2597 16.0934 12.3557 16.1947C12.4518 16.2961 12.583 16.3568 12.7224 16.3644ZM7.99973 10.9101C7.37283 10.9101 6.77161 10.6611 6.32833 10.2178C5.88504 9.77446 5.63601 9.17321 5.63601 8.54628C5.63601 7.91935 5.88504 7.3181 6.32833 6.8748C6.77161 6.43149 7.37283 6.18245 7.99973 6.18245C8.62663 6.18245 9.22786 6.43149 9.67114 6.8748C10.1144 7.3181 10.3635 7.91935 10.3635 8.54628C10.3635 9.17321 10.1144 9.77446 9.67114 10.2178C9.22786 10.6611 8.62663 10.9101 7.99973 10.9101ZM7.99973 7.27394C7.68689 7.30908 7.39797 7.45826 7.18816 7.69297C6.97835 7.92767 6.86237 8.23146 6.86237 8.54628C6.86237 8.8611 6.97835 9.16488 7.18816 9.39959C7.39797 9.6343 7.68689 9.78348 7.99973 9.81862C8.31257 9.78348 8.6015 9.6343 8.81131 9.39959C9.02112 9.16488 9.1371 8.8611 9.1371 8.54628C9.1371 8.23146 9.02112 7.92767 8.81131 7.69297C8.6015 7.45826 8.31257 7.30908 7.99973 7.27394ZM7.99973 18.184C7.37283 18.184 6.77161 17.935 6.32833 17.4917C5.88504 17.0484 5.63601 16.4471 5.63601 15.8202C5.63601 15.1933 5.88504 14.592 6.32833 14.1487C6.77161 13.7054 7.37283 13.4564 7.99973 13.4564C8.62663 13.4564 9.22786 13.7054 9.67114 14.1487C10.1144 14.592 10.3635 15.1933 10.3635 15.8202C10.3635 16.4471 10.1144 17.0484 9.67114 17.4917C9.22786 17.935 8.62663 18.184 7.99973 18.184ZM7.99973 14.5463C7.68544 14.5798 7.39463 14.7283 7.1833 14.9634C6.97197 15.1984 6.85505 15.5033 6.85505 15.8194C6.85505 16.1355 6.97197 16.4404 7.1833 16.6755C7.39463 16.9105 7.68544 17.0591 7.99973 17.0926C8.31403 17.0591 8.60483 16.9105 8.81616 16.6755C9.02749 16.4404 9.14441 16.1355 9.14441 15.8194C9.14441 15.5033 9.02749 15.1984 8.81616 14.9634C8.60483 14.7283 8.31403 14.5798 7.99973 14.5463ZM12.7224 23.6399H17.8179C17.9626 23.6399 18.1015 23.5824 18.2038 23.4801C18.3061 23.3777 18.3636 23.2389 18.3636 23.0942C18.3636 22.9494 18.3061 22.8106 18.2038 22.7083C18.1015 22.6059 17.9626 22.5484 17.8179 22.5484H12.7224C12.5776 22.5484 12.4388 22.6059 12.3365 22.7083C12.2342 22.8106 12.1767 22.9494 12.1767 23.0942C12.1767 23.2389 12.2342 23.3777 12.3365 23.4801C12.4388 23.5824 12.5776 23.6399 12.7224 23.6399ZM7.99973 25.458C7.37283 25.458 6.77161 25.2089 6.32833 24.7656C5.88504 24.3223 5.63601 23.7211 5.63601 23.0942C5.63601 22.4672 5.88504 21.866 6.32833 21.4227C6.77161 20.9794 7.37283 20.7303 7.99973 20.7303C8.62663 20.7303 9.22786 20.9794 9.67114 21.4227C10.1144 21.866 10.3635 22.4672 10.3635 23.0942C10.3635 23.7211 10.1144 24.3223 9.67114 24.7656C9.22786 25.2089 8.62663 25.458 7.99973 25.458ZM7.99973 21.8202C7.68544 21.8537 7.39463 22.0023 7.1833 22.2373C6.97197 22.4724 6.85505 22.7773 6.85505 23.0934C6.85505 23.4094 6.97197 23.7144 7.1833 23.9494C7.39463 24.1845 7.68544 24.333 7.99973 24.3665C8.31403 24.333 8.60483 24.1845 8.81616 23.9494C9.02749 23.7144 9.14441 23.4094 9.14441 23.0934C9.14441 22.7773 9.02749 22.4724 8.81616 22.2373C8.60483 22.0023 8.31403 21.8537 7.99973 21.8202ZM22.9086 29.8224H12.7224C12.583 29.8299 12.4518 29.8906 12.3557 29.992C12.2597 30.0934 12.2062 30.2277 12.2062 30.3673C12.2062 30.5069 12.2597 30.6412 12.3557 30.7426C12.4518 30.844 12.583 30.9047 12.7224 30.9122H22.9038C23.0433 30.9053 23.1748 30.8452 23.2713 30.7443C23.3678 30.6433 23.4219 30.5092 23.4225 30.3696C23.4231 30.2299 23.3702 30.0954 23.2746 29.9936C23.179 29.8918 23.048 29.8305 22.9086 29.8224ZM7.99973 32.7319C7.38327 32.7159 6.79745 32.4597 6.3671 32.018C5.93676 31.5763 5.69593 30.984 5.69593 30.3673C5.69593 29.7506 5.93676 29.1583 6.3671 28.7166C6.79745 28.2749 7.38327 28.0187 7.99973 28.0027C8.61619 28.0187 9.20202 28.2749 9.63236 28.7166C10.0627 29.1583 10.3035 29.7506 10.3035 30.3673C10.3035 30.984 10.0627 31.5763 9.63236 32.018C9.20202 32.4597 8.61619 32.7159 7.99973 32.7319ZM7.99973 29.0942C7.68544 29.1276 7.39463 29.2762 7.1833 29.5112C6.97197 29.7463 6.85505 30.0512 6.85505 30.3673C6.85505 30.6834 6.97197 30.9883 7.1833 31.2234C7.39463 31.4584 7.68544 31.607 7.99973 31.6404C8.31403 31.607 8.60483 31.4584 8.81616 31.2234C9.02749 30.9883 9.14441 30.6834 9.14441 30.3673C9.14441 30.0512 9.02749 29.7463 8.81616 29.5112C8.60483 29.2762 8.31403 29.1276 7.99973 29.0942ZM30.7248 29.2318V33.2729C30.7227 33.9938 30.4354 34.6846 29.9256 35.1944C29.4158 35.7042 28.7251 35.9915 28.0042 35.9936H4.7206C3.99983 35.9911 3.30931 35.7036 2.79964 35.1939C2.28998 34.6842 2.00253 33.9937 2 33.2729L2 2.72073C2.00295 2.00005 2.29053 1.30974 2.8001 0.80014C3.30968 0.290543 3.99996 0.0029493 4.7206 0L27.9994 0C28.7201 0.00253063 29.4107 0.28999 29.9203 0.799678C30.43 1.30937 30.7175 1.99992 30.72 2.72073V11.1326C32.7819 11.5867 34.6268 12.7313 35.9495 14.377C37.2721 16.0227 37.9931 18.0708 37.9931 20.1822C37.9931 22.2936 37.2721 24.3416 35.9495 25.9873C34.6268 27.633 32.7819 28.7777 30.72 29.2318H30.7248ZM11.2725 3.63617H21.4539C22.7342 3.60576 22.2861 1.89811 22.3629 1.08989H10.3603C10.4403 1.89971 9.98417 3.60416 11.2725 3.63617ZM29.6365 29.403C16.1487 30 16.1423 10.358 29.6365 10.9485V2.72073C29.6344 2.28774 29.4611 1.87319 29.1543 1.56763C28.8476 1.26206 28.4323 1.09031 27.9994 1.08989H23.4544V2.72073C23.4544 2.98344 23.4026 3.24358 23.3021 3.4863C23.2016 3.72901 23.0542 3.94955 22.8685 4.13532C22.6827 4.32108 22.4622 4.46844 22.2195 4.56898C21.9768 4.66951 21.7166 4.72126 21.4539 4.72126H11.2725C10.742 4.72084 10.2335 4.50993 9.8584 4.13485C9.48334 3.75977 9.27244 3.25117 9.27202 2.72073V1.08989H4.7206C4.2889 1.092 3.87549 1.26454 3.57038 1.56998C3.26526 1.87541 3.09313 2.289 3.09144 2.72073V33.2729C3.09144 33.7057 3.26282 34.1209 3.56812 34.4278C3.87342 34.7346 4.28779 34.908 4.7206 34.9101H27.9994C28.4335 34.9097 28.8496 34.7371 29.1566 34.4301C29.4635 34.1232 29.6361 33.707 29.6365 33.2729V29.403ZM36.9086 20.1766C36.9076 18.5583 36.4269 16.9767 35.5272 15.6317C34.6275 14.2866 33.3492 13.2385 31.854 12.6199C30.3587 12.0013 28.7136 11.8399 27.1266 12.1562C25.5397 12.4725 24.0821 13.2522 22.9383 14.3968C21.7944 15.5414 21.0155 16.9995 20.7002 18.5867C20.3849 20.1739 20.5472 21.819 21.1666 23.314C21.7861 24.8089 22.8349 26.0867 24.1804 26.9856C25.5259 27.8846 27.1078 28.3644 28.7259 28.3644C30.8958 28.3644 32.9769 27.5024 34.5114 25.9682C36.0458 24.4339 36.9081 22.353 36.9086 20.183V20.1766ZM34.5624 18.8658L32.0403 21.3241L32.6356 24.7954C32.6525 24.8958 32.6413 24.9989 32.6031 25.0932C32.565 25.1876 32.5015 25.2695 32.4196 25.33C32.3371 25.3897 32.2396 25.4251 32.138 25.4322C32.0365 25.4393 31.9349 25.4177 31.845 25.37L28.7259 23.7375L25.6084 25.3764C25.5181 25.426 25.4156 25.4491 25.3127 25.443C25.2099 25.4368 25.1108 25.4016 25.0271 25.3415C24.9434 25.2814 24.8784 25.1988 24.8397 25.1033C24.801 25.0078 24.7901 24.9033 24.8083 24.8018L25.4036 21.3305L22.883 18.8722C22.8098 18.8015 22.758 18.7116 22.7333 18.6128C22.7087 18.5141 22.7122 18.4103 22.7435 18.3135C22.7749 18.2166 22.8328 18.1305 22.9106 18.0649C22.9885 17.9993 23.0831 17.9569 23.1839 17.9424L26.6695 17.435L28.2458 14.2774C28.2958 14.1921 28.3672 14.1213 28.453 14.0721C28.5387 14.023 28.6359 13.9971 28.7347 13.9971C28.8336 13.9971 28.9308 14.023 29.0165 14.0721C29.1023 14.1213 29.1737 14.1921 29.2236 14.2774L30.7824 17.435L34.268 17.9424C34.3685 17.9572 34.463 17.9997 34.5406 18.0653C34.6183 18.1309 34.6761 18.2168 34.7076 18.3135C34.739 18.4102 34.7428 18.5137 34.7186 18.6124C34.6944 18.7111 34.6431 18.8011 34.5704 18.8722L34.5624 18.8658ZM33.0101 18.8562L30.3263 18.4737C30.2388 18.4609 30.1558 18.4271 30.0842 18.3753C30.0126 18.3235 29.9545 18.2551 29.915 18.176L28.7259 15.7514L27.5289 18.176C27.4899 18.2552 27.4323 18.3238 27.3609 18.3756C27.2895 18.4275 27.2065 18.4612 27.1192 18.4737L24.4434 18.8626L26.3798 20.7495C26.4432 20.8108 26.4908 20.8864 26.5187 20.97C26.5465 21.0536 26.5538 21.1427 26.5399 21.2297L26.0838 23.8944C26.9421 23.4072 27.8257 22.966 28.7307 22.5724C29.6358 22.966 30.5194 23.4072 31.3777 23.8944L30.92 21.2297C30.9061 21.1427 30.9134 21.0536 30.9412 20.97C30.9691 20.8864 31.0167 20.8108 31.0801 20.7495L33.0101 18.8562Z" fill="#2688EB"/>
</g>
<defs>
<clipPath id="clip0_158_366">
<rect width="36" height="36" fill="white" transform="translate(2)"/>
</clipPath>
</defs>
</svg>
