<svg width="36" height="36" viewBox="0 0 36 36" fill="none" xmlns="http://www.w3.org/2000/svg">
<path fill-rule="evenodd" clip-rule="evenodd" d="M18 2.25C15.5281 2.25 13.5 4.27805 13.5 6.75C13.5 6.75225 13.5 6.7545 13.5 6.75675C13.5045 7.51801 13.7005 8.26642 14.0735 8.93204C14.1456 9.06105 14.2424 9.17459 14.3584 9.26618C14.4744 9.35776 14.6073 9.4256 14.7496 9.46579C14.8918 9.50599 15.0405 9.51777 15.1873 9.50046C15.3341 9.48315 15.476 9.43709 15.605 9.36491C15.734 9.29281 15.8476 9.19599 15.9391 9.07999C16.0307 8.96398 16.0986 8.83107 16.1387 8.68885C16.1789 8.54662 16.1907 8.39787 16.1734 8.25109C16.1561 8.10431 16.11 7.96238 16.0378 7.83341C15.8524 7.50245 15.753 7.12896 15.75 6.74797C15.7511 5.49305 16.7448 4.50015 18 4.50015C19.2552 4.50015 20.2488 5.49305 20.25 6.74797C20.2466 7.12504 20.15 7.49514 19.9666 7.82463C19.8216 8.08516 19.7861 8.39255 19.8676 8.67929C19.9492 8.96604 20.1413 9.20867 20.4016 9.35391C20.6621 9.49882 20.9695 9.5344 21.2563 9.45283C21.543 9.37125 21.7857 9.1792 21.9309 8.91886C22.2992 8.25747 22.4954 7.51372 22.5 6.75675C22.5 6.7545 22.5 6.75225 22.5 6.75C22.5 4.27805 20.472 2.25 18 2.25Z" fill="#2688EB"/>
<path fill-rule="evenodd" clip-rule="evenodd" d="M18 6.75C12.4214 6.75 7.875 11.2964 7.875 16.875V23.625C6.02471 23.625 4.5 25.1497 4.5 27C4.5 28.8503 6.02471 30.375 7.875 30.375H28.125C29.9753 30.375 31.5 28.8503 31.5 27C31.5 25.1497 29.9753 23.625 28.125 23.625V16.875C28.125 11.2964 23.5786 6.75 18 6.75ZM18 9C22.3626 9 25.875 12.5124 25.875 16.875V24.75C25.875 25.0484 25.9936 25.3345 26.2046 25.5455C26.4155 25.7564 26.7016 25.875 27 25.875H28.125C28.7677 25.875 29.25 26.3573 29.25 27C29.25 27.6427 28.7677 28.125 28.125 28.125H7.875C7.23232 28.125 6.75 27.6427 6.75 27C6.75 26.3573 7.23232 25.875 7.875 25.875H9C9.29836 25.875 9.58447 25.7564 9.79544 25.5455C10.0064 25.3345 10.125 25.0484 10.125 24.75V16.875C10.125 12.5124 13.6374 9 18 9Z" fill="#2688EB"/>
<path fill-rule="evenodd" clip-rule="evenodd" d="M12.375 31.5C12.0766 31.5 11.7905 31.6185 11.5795 31.8295C11.3685 32.0405 11.25 32.3266 11.25 32.625C11.25 32.9234 11.3685 33.2095 11.5795 33.4205C11.7905 33.6315 12.0766 33.75 12.375 33.75H23.625C23.9234 33.75 24.2095 33.6315 24.4205 33.4205C24.6315 33.2095 24.75 32.9234 24.75 32.625C24.75 32.3266 24.6315 32.0405 24.4205 31.8295C24.2095 31.6185 23.9234 31.5 23.625 31.5H12.375Z" fill="#2688EB"/>
<path fill-rule="evenodd" clip-rule="evenodd" d="M27.6438 5.9194C27.5331 5.82152 27.4041 5.74643 27.2643 5.69843C27.1245 5.65042 26.9766 5.63044 26.829 5.63962C26.6815 5.64881 26.5372 5.68698 26.4044 5.75195C26.2717 5.81692 26.153 5.90742 26.0552 6.01828C25.9573 6.12906 25.8822 6.25804 25.8342 6.39784C25.7862 6.53765 25.7662 6.68556 25.7754 6.83309C25.7846 6.98063 25.8228 7.12491 25.8878 7.25769C25.9527 7.39046 26.0432 7.50913 26.1541 7.60691C28.2448 9.4513 29.717 11.9791 30.2014 14.8183C30.2262 14.9641 30.2794 15.1035 30.3581 15.2287C30.4368 15.3539 30.5393 15.4623 30.6599 15.5478C30.7805 15.6333 30.9168 15.6942 31.0609 15.727C31.2051 15.7598 31.3543 15.7639 31.5 15.739C31.794 15.6885 32.0559 15.5234 32.2281 15.2798C32.4003 15.0363 32.4688 14.7344 32.4185 14.4404C31.8443 11.0756 30.1069 8.0922 27.6438 5.9194Z" fill="#2688EB"/>
<path fill-rule="evenodd" clip-rule="evenodd" d="M9.18239 5.63164C9.03484 5.62231 8.88689 5.64215 8.74702 5.69003C8.60714 5.73791 8.47808 5.81289 8.3672 5.91069C5.89813 8.08447 4.15387 11.0723 3.57936 14.4427C3.55446 14.5884 3.55854 14.7376 3.59134 14.8818C3.62414 15.0259 3.68502 15.1622 3.77052 15.2828C3.85602 15.4034 3.96447 15.506 4.08964 15.5846C4.21481 15.6633 4.35426 15.7165 4.50001 15.7413C4.64574 15.7662 4.79494 15.7621 4.93909 15.7293C5.08324 15.6965 5.21952 15.6356 5.34012 15.5501C5.46073 15.4646 5.5633 15.3561 5.64197 15.231C5.72064 15.1058 5.77386 14.9664 5.7986 14.8206C6.28338 11.9767 7.7568 9.4455 9.85255 7.60039C9.96357 7.50276 10.0542 7.38422 10.1194 7.25152C10.1846 7.11882 10.223 6.97458 10.2324 6.82704C10.2418 6.6795 10.222 6.53156 10.1742 6.39167C10.1264 6.25178 10.0514 6.12268 9.9537 6.01177C9.75709 5.78794 9.47966 5.65123 9.18239 5.63164Z" fill="#2688EB"/>
</svg>
