<svg width="60" height="60" viewBox="0 0 60 60" fill="none" xmlns="http://www.w3.org/2000/svg">
<path opacity="0.2" d="M30 58.125C44.4975 58.125 56.25 46.3725 56.25 31.875C56.25 17.3775 44.4975 5.625 30 5.625C15.5025 5.625 3.75 17.3775 3.75 31.875C3.75 46.3725 15.5025 58.125 30 58.125Z" fill="#00100F"/>
<path d="M30 56.25C44.4975 56.25 56.25 44.4975 56.25 30C56.25 15.5025 44.4975 3.75 30 3.75C15.5025 3.75 3.75 15.5025 3.75 30C3.75 44.4975 15.5025 56.25 30 56.25Z" fill="#447BBA"/>
<g opacity="0.2">
<path d="M30 13.125C25.857 13.125 22.5 16.4835 22.5 20.625C22.5 24.7665 25.857 28.125 30 28.125C34.143 28.125 37.5 24.7665 37.5 20.625C37.5 16.4835 34.143 13.125 30 13.125Z" fill="black"/>
<path d="M30 31.875C16.8763 31.8829 16.875 40.1827 16.875 40.1827V43.5577C16.875 43.5577 19.2981 48.75 30 48.75C40.7019 48.75 43.125 43.5577 43.125 43.5577V40.1827C43.125 40.1827 43.125 31.8698 30.0026 31.875H30Z" fill="black"/>
</g>
<path d="M30 11.25C25.857 11.25 22.5 14.6085 22.5 18.75C22.5 22.8915 25.857 26.25 30 26.25C34.143 26.25 37.5 22.8915 37.5 18.75C37.5 14.6085 34.143 11.25 30 11.25Z" fill="white"/>
<path d="M30 30C16.8763 30.0079 16.875 38.3077 16.875 38.3077V41.6827C16.875 41.6827 19.2981 46.875 30 46.875C40.7019 46.875 43.125 41.6827 43.125 41.6827V38.3077C43.125 38.3077 43.125 29.9948 30.0026 30H30Z" fill="white"/>
<path opacity="0.2" d="M30 3.75C23.0381 3.75 16.3613 6.51562 11.4384 11.4384C6.51562 16.3613 3.75 23.0381 3.75 30C3.75576 30.3665 3.76919 30.7327 3.79028 31.0986C3.99206 24.2791 6.841 17.806 11.7335 13.051C16.6259 8.29593 23.1775 5.63249 30 5.625C36.7687 5.62946 43.2741 8.24838 48.1579 12.935C53.0417 17.6216 55.9264 24.0136 56.2097 30.7764C56.227 30.5178 56.2404 30.259 56.25 30C56.25 23.0381 53.4844 16.3613 48.5616 11.4384C43.6387 6.51562 36.9619 3.75 30 3.75Z" fill="white"/>
</svg>
